<svg xmlns="http://www.w3.org/2000/svg" xmlns:xlink="http://www.w3.org/1999/xlink" width="5500" zoomAndPan="magnify" viewBox="0 0 4125 1499.999933" height="2000" preserveAspectRatio="xMidYMid meet" version="1.0"><defs><g/><clipPath id="id1"><path d="M 1541 159 L 2353 159 L 2353 539 L 1541 539 Z M 1541 159 " clip-rule="nonzero"/></clipPath><clipPath id="id2"><path d="M 1495.640625 206.902344 L 2200.6875 -6.019531 L 2398 647.335938 L 1692.953125 860.257812 Z M 1495.640625 206.902344 " clip-rule="nonzero"/></clipPath><clipPath id="id3"><path d="M 1495.640625 206.902344 L 2200.6875 -6.019531 L 2398 647.335938 L 1692.953125 860.257812 Z M 1495.640625 206.902344 " clip-rule="nonzero"/></clipPath><clipPath id="id4"><path d="M 1495.640625 206.902344 L 2200.6875 -6.019531 L 2398 647.335938 L 1692.953125 860.257812 Z M 1495.640625 206.902344 " clip-rule="nonzero"/></clipPath><clipPath id="id5"><path d="M 1532.582031 195.789062 L 2202.378906 -6.488281 L 2363.453125 526.867188 L 1693.65625 729.144531 Z M 1532.582031 195.789062 " clip-rule="nonzero"/></clipPath><clipPath id="id6"><path d="M 1532.582031 195.789062 L 2200.722656 -5.988281 L 2361.792969 527.367188 L 1693.65625 729.144531 Z M 1532.582031 195.789062 " clip-rule="nonzero"/></clipPath><clipPath id="id7"><path d="M 1581 323 L 2221 323 L 2221 636 L 1581 636 Z M 1581 323 " clip-rule="nonzero"/></clipPath><clipPath id="id8"><path d="M 1495.640625 206.902344 L 2200.6875 -6.019531 L 2398 647.335938 L 1692.953125 860.257812 Z M 1495.640625 206.902344 " clip-rule="nonzero"/></clipPath><clipPath id="id9"><path d="M 1495.640625 206.902344 L 2200.6875 -6.019531 L 2398 647.335938 L 1692.953125 860.257812 Z M 1495.640625 206.902344 " clip-rule="nonzero"/></clipPath><clipPath id="id10"><path d="M 1495.640625 206.902344 L 2200.6875 -6.019531 L 2398 647.335938 L 1692.953125 860.257812 Z M 1495.640625 206.902344 " clip-rule="nonzero"/></clipPath><clipPath id="id11"><path d="M 1606 511 L 2073 511 L 2073 755 L 1606 755 Z M 1606 511 " clip-rule="nonzero"/></clipPath><clipPath id="id12"><path d="M 1495.640625 206.902344 L 2200.6875 -6.019531 L 2398 647.335938 L 1692.953125 860.257812 Z M 1495.640625 206.902344 " clip-rule="nonzero"/></clipPath><clipPath id="id13"><path d="M 1495.640625 206.902344 L 2200.6875 -6.019531 L 2398 647.335938 L 1692.953125 860.257812 Z M 1495.640625 206.902344 " clip-rule="nonzero"/></clipPath><clipPath id="id14"><path d="M 1495.640625 206.902344 L 2200.6875 -6.019531 L 2398 647.335938 L 1692.953125 860.257812 Z M 1495.640625 206.902344 " clip-rule="nonzero"/></clipPath><clipPath id="id15"><path d="M 1596.953125 542.386719 L 1986.410156 424.769531 L 2082.648438 743.441406 L 1693.191406 861.058594 Z M 1596.953125 542.386719 " clip-rule="nonzero"/></clipPath><clipPath id="id16"><path d="M 1596.953125 542.386719 L 1986.410156 424.769531 L 2082.386719 742.570312 L 1692.929688 860.1875 Z M 1596.953125 542.386719 " clip-rule="nonzero"/></clipPath><clipPath id="id17"><path d="M 1658.429688 672.519531 L 1922.429688 672.519531 L 1922.429688 938.769531 L 1658.429688 938.769531 Z M 1658.429688 672.519531 " clip-rule="nonzero"/></clipPath></defs><g fill="#092c3c" fill-opacity="1"><g transform="translate(338.425456, 1334.633841)"><g><path d="M 95.734375 -544.734375 L 233.046875 -544 C 304.785156 -544 367.867188 -518.144531 422.296875 -466.4375 C 476.722656 -414.738281 503.9375 -351.160156 503.9375 -275.703125 C 503.9375 -200.253906 477.34375 -135.5625 424.15625 -81.625 C 370.96875 -27.695312 306.519531 -0.734375 230.8125 -0.734375 L 95 -0.734375 C 64.8125 -0.734375 46.007812 -6.921875 38.59375 -19.296875 C 32.65625 -29.679688 29.6875 -45.515625 29.6875 -66.796875 L 29.6875 -479.4375 C 29.6875 -491.3125 30.054688 -499.96875 30.796875 -505.40625 C 31.535156 -510.84375 33.882812 -517.273438 37.84375 -524.703125 C 44.769531 -538.054688 64.066406 -544.734375 95.734375 -544.734375 Z M 233.046875 -132.109375 C 268.671875 -132.109375 300.828125 -145.34375 329.515625 -171.8125 C 358.210938 -198.28125 372.5625 -231.550781 372.5625 -271.625 C 372.5625 -311.707031 358.582031 -345.226562 330.625 -372.1875 C 302.675781 -399.15625 269.898438 -412.640625 232.296875 -412.640625 L 161.046875 -412.640625 L 161.046875 -132.109375 Z M 233.046875 -132.109375 "/></g></g></g><g fill="#092c3c" fill-opacity="1"><g transform="translate(860.917508, 1334.633841)"><g><path d="M 283.515625 -349.5625 C 286.484375 -377.269531 306.023438 -391.125 342.140625 -391.125 C 361.429688 -391.125 375.773438 -389.640625 385.171875 -386.671875 C 394.578125 -383.703125 401.132812 -378.503906 404.84375 -371.078125 C 408.5625 -363.660156 410.789062 -357.109375 411.53125 -351.421875 C 412.269531 -345.734375 412.640625 -337.195312 412.640625 -325.8125 L 412.640625 -66.046875 C 412.640625 -54.671875 412.269531 -46.132812 411.53125 -40.4375 C 410.789062 -34.75 408.6875 -28.195312 405.21875 -20.78125 C 398.289062 -7.914062 381.34375 -1.484375 354.375 -1.484375 C 327.414062 -1.484375 309.359375 -4.820312 300.203125 -11.5 C 291.054688 -18.175781 285.738281 -27.945312 284.25 -40.8125 C 265.945312 -14.59375 235.394531 -1.484375 192.59375 -1.484375 C 149.789062 -1.484375 110.082031 -21.023438 73.46875 -60.109375 C 36.851562 -99.203125 18.546875 -144.597656 18.546875 -196.296875 C 18.546875 -248.003906 36.976562 -293.273438 73.84375 -332.109375 C 110.707031 -370.953125 151.15625 -390.375 195.1875 -390.375 C 212.007812 -390.375 227.347656 -387.40625 241.203125 -381.46875 C 255.054688 -375.53125 264.703125 -369.960938 270.140625 -364.765625 C 275.585938 -359.578125 280.046875 -354.507812 283.515625 -349.5625 Z M 148.4375 -195.1875 C 148.4375 -178.863281 154.867188 -164.144531 167.734375 -151.03125 C 180.597656 -137.914062 196.179688 -131.359375 214.484375 -131.359375 C 232.796875 -131.359375 248.007812 -138.035156 260.125 -151.390625 C 272.25 -164.753906 278.3125 -179.476562 278.3125 -195.5625 C 278.3125 -211.644531 272.5 -226.613281 260.875 -240.46875 C 249.25 -254.320312 233.660156 -261.25 214.109375 -261.25 C 194.566406 -261.25 178.734375 -254.320312 166.609375 -240.46875 C 154.492188 -226.613281 148.4375 -211.519531 148.4375 -195.1875 Z M 148.4375 -195.1875 "/></g></g></g><g fill="#092c3c" fill-opacity="1"><g transform="translate(1303.254503, 1334.633841)"><g><path d="M 259.765625 -195.9375 L 358.46875 -114.296875 C 370.832031 -103.898438 378.625 -95.976562 381.84375 -90.53125 C 385.0625 -85.09375 386.671875 -79.898438 386.671875 -74.953125 C 386.671875 -63.078125 379.003906 -47 363.671875 -26.71875 C 346.847656 -5.9375 332.003906 4.453125 319.140625 4.453125 C 308.253906 4.453125 293.160156 -2.71875 273.859375 -17.0625 L 266.4375 -22.265625 C 255.0625 -31.660156 237.5 -48.109375 213.75 -71.609375 C 190 -95.117188 171.9375 -111.820312 159.5625 -121.71875 L 159.5625 -64.5625 C 159.5625 -53.1875 159.191406 -44.648438 158.453125 -38.953125 C 157.710938 -33.265625 155.363281 -26.710938 151.40625 -19.296875 C 144.96875 -6.429688 125.914062 0 94.25 0 C 63.082031 0 44.035156 -6.675781 37.109375 -20.03125 C 33.640625 -27.457031 31.535156 -34.015625 30.796875 -39.703125 C 30.054688 -45.390625 29.6875 -53.925781 29.6875 -65.3125 L 29.6875 -509.875 C 29.6875 -521.238281 30.054688 -529.765625 30.796875 -535.453125 C 31.535156 -541.148438 33.640625 -547.707031 37.109375 -555.125 C 44.035156 -568.488281 63.332031 -575.171875 95 -575.171875 C 118.75 -575.171875 135.570312 -570.960938 145.46875 -562.546875 C 153.875 -555.617188 158.328125 -544.734375 158.828125 -529.890625 C 159.316406 -525.441406 159.5625 -518.519531 159.5625 -509.125 L 159.5625 -273.859375 C 168.46875 -281.285156 181.953125 -293.90625 200.015625 -311.71875 C 218.078125 -329.53125 231.5625 -342.144531 240.46875 -349.5625 L 249.375 -355.5 C 266.6875 -368.851562 281.523438 -375.53125 293.890625 -375.53125 C 306.265625 -375.53125 320.492188 -365.507812 336.578125 -345.46875 C 352.660156 -325.4375 360.703125 -309.726562 360.703125 -298.34375 C 360.703125 -286.96875 351.546875 -273.613281 333.234375 -258.28125 Z M 259.765625 -195.9375 "/></g></g></g><g fill="#092c3c" fill-opacity="1"><g transform="translate(1701.060896, 1334.633841)"><g><path d="M 29.6875 -325.8125 C 29.6875 -337.195312 30.054688 -345.734375 30.796875 -351.421875 C 31.535156 -357.109375 33.640625 -363.660156 37.109375 -371.078125 C 44.035156 -383.941406 63.332031 -390.375 95 -390.375 C 118.75 -390.375 135.570312 -386.171875 145.46875 -377.765625 C 153.875 -370.835938 158.328125 -360.203125 158.828125 -345.859375 C 159.316406 -340.910156 159.5625 -333.734375 159.5625 -324.328125 L 159.5625 -64.5625 C 159.5625 -53.1875 159.191406 -44.648438 158.453125 -38.953125 C 157.710938 -33.265625 155.363281 -26.710938 151.40625 -19.296875 C 144.96875 -6.429688 125.914062 0 94.25 0 C 63.082031 0 44.035156 -6.675781 37.109375 -20.03125 C 33.640625 -27.457031 31.535156 -33.890625 30.796875 -39.328125 C 30.054688 -44.773438 29.6875 -53.4375 29.6875 -65.3125 Z M 151.765625 -463.484375 C 148.054688 -456.304688 141.5 -451.234375 132.09375 -448.265625 C 122.695312 -445.296875 110.207031 -443.8125 94.625 -443.8125 C 79.039062 -443.8125 66.546875 -445.296875 57.140625 -448.265625 C 47.742188 -451.234375 41.1875 -456.425781 37.46875 -463.84375 C 33.757812 -471.269531 31.535156 -477.828125 30.796875 -483.515625 C 30.054688 -489.210938 29.6875 -497.75 29.6875 -509.125 C 29.6875 -520.5 30.054688 -529.03125 30.796875 -534.71875 C 31.535156 -540.40625 33.640625 -546.710938 37.109375 -553.640625 C 44.035156 -567.003906 63.332031 -573.6875 95 -573.6875 C 126.164062 -573.6875 144.96875 -567.003906 151.40625 -553.640625 C 155.363281 -546.222656 157.710938 -539.664062 158.453125 -533.96875 C 159.191406 -528.28125 159.5625 -519.75 159.5625 -508.375 C 159.5625 -497 159.191406 -488.46875 158.453125 -482.78125 C 157.710938 -477.09375 155.484375 -470.660156 151.765625 -463.484375 Z M 151.765625 -463.484375 "/></g></g></g><g fill="#092c3c" fill-opacity="1"><g transform="translate(1890.315947, 1334.633841)"><g><path d="M 256.796875 -259.765625 L 208.546875 -262.734375 L 208.546875 -160.3125 C 208.546875 -146.945312 210.648438 -137.296875 214.859375 -131.359375 C 219.066406 -125.421875 226.984375 -122.453125 238.609375 -122.453125 C 250.234375 -122.453125 259.140625 -122.082031 265.328125 -121.34375 C 271.515625 -120.601562 278.070312 -118.253906 285 -114.296875 C 296.375 -107.859375 302.0625 -91.28125 302.0625 -64.5625 C 302.0625 -33.394531 295.132812 -14.347656 281.28125 -7.421875 C 273.863281 -3.953125 267.304688 -1.847656 261.609375 -1.109375 C 255.921875 -0.367188 247.632812 0 236.75 0 C 185.289062 0 146.203125 -11.625 119.484375 -34.875 C 92.765625 -58.132812 79.40625 -97.472656 79.40625 -152.890625 L 79.40625 -262.734375 C 70.007812 -261.242188 59.867188 -260.5 48.984375 -260.5 C 38.097656 -260.5 29.066406 -264.703125 21.890625 -273.109375 C 14.710938 -281.523438 11.125 -295.875 11.125 -316.15625 C 11.125 -336.445312 12.359375 -351.164062 14.828125 -360.3125 C 17.304688 -369.46875 20.773438 -376.023438 25.234375 -379.984375 C 33.148438 -386.421875 43.046875 -389.640625 54.921875 -389.640625 L 79.40625 -386.671875 L 79.40625 -463.109375 C 79.40625 -474.492188 79.773438 -482.90625 80.515625 -488.34375 C 81.265625 -493.789062 83.617188 -499.726562 87.578125 -506.15625 C 94.003906 -518.519531 113.050781 -524.703125 144.71875 -524.703125 C 178.363281 -524.703125 198.40625 -515.550781 204.84375 -497.25 C 207.3125 -489.332031 208.546875 -476.71875 208.546875 -459.40625 L 208.546875 -386.671875 C 230.316406 -388.648438 246.769531 -389.640625 257.90625 -389.640625 C 269.039062 -389.640625 277.453125 -389.265625 283.140625 -388.515625 C 288.828125 -387.773438 295.382812 -385.425781 302.8125 -381.46875 C 315.675781 -375.039062 322.109375 -355.992188 322.109375 -324.328125 C 322.109375 -293.160156 315.425781 -274.113281 302.0625 -267.1875 C 294.644531 -263.71875 288.085938 -261.613281 282.390625 -260.875 C 276.703125 -260.132812 268.171875 -259.765625 256.796875 -259.765625 Z M 256.796875 -259.765625 "/></g></g></g><g fill="#092c3c" fill-opacity="1"><g transform="translate(2223.553038, 1334.633841)"><g><path d="M 295.375 -386.671875 C 304.78125 -383.703125 312.578125 -378.628906 318.765625 -371.453125 C 324.953125 -364.285156 328.046875 -352.785156 328.046875 -336.953125 C 328.046875 -321.117188 323.34375 -303.800781 313.9375 -285 C 304.539062 -266.195312 290.9375 -256.796875 273.125 -256.796875 C 264.21875 -256.796875 255.679688 -258.773438 247.515625 -262.734375 C 239.347656 -266.691406 228.582031 -268.671875 215.21875 -268.671875 C 201.863281 -268.671875 189.375 -263.96875 177.75 -254.5625 C 166.125 -245.164062 160.3125 -233.785156 160.3125 -220.421875 L 160.3125 -64.5625 C 160.3125 -53.1875 159.9375 -44.648438 159.1875 -38.953125 C 158.445312 -33.265625 156.097656 -26.710938 152.140625 -19.296875 C 144.722656 -6.429688 125.425781 0 94.25 0 C 70.5 0 53.429688 -4.203125 43.046875 -12.609375 C 35.128906 -19.535156 30.675781 -30.175781 29.6875 -44.53125 C 29.6875 -49.476562 29.6875 -56.648438 29.6875 -66.046875 L 29.6875 -326.5625 C 29.6875 -337.9375 30.054688 -346.46875 30.796875 -352.15625 C 31.535156 -357.851562 33.640625 -364.160156 37.109375 -371.078125 C 44.035156 -384.441406 63.332031 -391.125 95 -391.125 C 124.6875 -391.125 143.238281 -385.429688 150.65625 -374.046875 C 156.101562 -366.140625 158.828125 -357.976562 158.828125 -349.5625 C 161.296875 -353.03125 164.878906 -357.234375 169.578125 -362.171875 C 174.285156 -367.117188 184.304688 -373.796875 199.640625 -382.203125 C 214.984375 -390.617188 228.46875 -394.828125 240.09375 -394.828125 C 251.71875 -394.828125 261.488281 -394.207031 269.40625 -392.96875 C 277.320312 -391.738281 285.976562 -389.640625 295.375 -386.671875 Z M 295.375 -386.671875 "/></g></g></g><g fill="#092c3c" fill-opacity="1"><g transform="translate(2562.727512, 1334.633841)"><g><path d="M 283.515625 -349.5625 C 286.484375 -377.269531 306.023438 -391.125 342.140625 -391.125 C 361.429688 -391.125 375.773438 -389.640625 385.171875 -386.671875 C 394.578125 -383.703125 401.132812 -378.503906 404.84375 -371.078125 C 408.5625 -363.660156 410.789062 -357.109375 411.53125 -351.421875 C 412.269531 -345.734375 412.640625 -337.195312 412.640625 -325.8125 L 412.640625 -66.046875 C 412.640625 -54.671875 412.269531 -46.132812 411.53125 -40.4375 C 410.789062 -34.75 408.6875 -28.195312 405.21875 -20.78125 C 398.289062 -7.914062 381.34375 -1.484375 354.375 -1.484375 C 327.414062 -1.484375 309.359375 -4.820312 300.203125 -11.5 C 291.054688 -18.175781 285.738281 -27.945312 284.25 -40.8125 C 265.945312 -14.59375 235.394531 -1.484375 192.59375 -1.484375 C 149.789062 -1.484375 110.082031 -21.023438 73.46875 -60.109375 C 36.851562 -99.203125 18.546875 -144.597656 18.546875 -196.296875 C 18.546875 -248.003906 36.976562 -293.273438 73.84375 -332.109375 C 110.707031 -370.953125 151.15625 -390.375 195.1875 -390.375 C 212.007812 -390.375 227.347656 -387.40625 241.203125 -381.46875 C 255.054688 -375.53125 264.703125 -369.960938 270.140625 -364.765625 C 275.585938 -359.578125 280.046875 -354.507812 283.515625 -349.5625 Z M 148.4375 -195.1875 C 148.4375 -178.863281 154.867188 -164.144531 167.734375 -151.03125 C 180.597656 -137.914062 196.179688 -131.359375 214.484375 -131.359375 C 232.796875 -131.359375 248.007812 -138.035156 260.125 -151.390625 C 272.25 -164.753906 278.3125 -179.476562 278.3125 -195.5625 C 278.3125 -211.644531 272.5 -226.613281 260.875 -240.46875 C 249.25 -254.320312 233.660156 -261.25 214.109375 -261.25 C 194.566406 -261.25 178.734375 -254.320312 166.609375 -240.46875 C 154.492188 -226.613281 148.4375 -211.519531 148.4375 -195.1875 Z M 148.4375 -195.1875 "/></g></g></g><g fill="#092c3c" fill-opacity="1"><g transform="translate(3005.064506, 1334.633841)"><g><path d="M 152.140625 -195.5625 C 152.140625 -174.53125 159.066406 -158.203125 172.921875 -146.578125 C 186.773438 -134.953125 201.492188 -129.140625 217.078125 -129.140625 C 232.671875 -129.140625 247.269531 -133.710938 260.875 -142.859375 C 274.476562 -152.015625 285.488281 -156.59375 293.90625 -156.59375 C 308.75 -156.59375 326.804688 -143.484375 348.078125 -117.265625 C 359.460938 -102.910156 365.15625 -90.046875 365.15625 -78.671875 C 365.15625 -59.867188 351.546875 -42.300781 324.328125 -25.96875 C 296.128906 -6.1875 261.492188 3.703125 220.421875 3.703125 C 174.410156 3.703125 130.128906 -12.867188 87.578125 -46.015625 C 67.285156 -61.847656 50.707031 -83 37.84375 -109.46875 C 24.976562 -135.9375 18.546875 -165.128906 18.546875 -197.046875 C 18.546875 -228.960938 24.976562 -257.90625 37.84375 -283.875 C 50.707031 -309.851562 67.285156 -330.757812 87.578125 -346.59375 C 128.640625 -379.25 172.425781 -395.578125 218.9375 -395.578125 C 237.738281 -395.578125 256.046875 -392.976562 273.859375 -387.78125 C 291.671875 -382.582031 304.785156 -377.507812 313.203125 -372.5625 L 325.078125 -365.15625 C 333.984375 -359.21875 340.910156 -354.515625 345.859375 -351.046875 C 358.722656 -341.148438 365.15625 -329.894531 365.15625 -317.28125 C 365.15625 -304.664062 359.957031 -290.441406 349.5625 -274.609375 C 331.75 -247.390625 314.679688 -233.78125 298.359375 -233.78125 C 288.953125 -233.78125 275.59375 -239.222656 258.28125 -250.109375 C 249.375 -258.523438 236.628906 -262.734375 220.046875 -262.734375 C 203.472656 -262.734375 188.007812 -256.796875 173.65625 -244.921875 C 159.3125 -233.046875 152.140625 -216.59375 152.140625 -195.5625 Z M 152.140625 -195.5625 "/></g></g></g><g fill="#092c3c" fill-opacity="1"><g transform="translate(3388.769491, 1334.633841)"><g><path d="M 259.765625 -195.9375 L 358.46875 -114.296875 C 370.832031 -103.898438 378.625 -95.976562 381.84375 -90.53125 C 385.0625 -85.09375 386.671875 -79.898438 386.671875 -74.953125 C 386.671875 -63.078125 379.003906 -47 363.671875 -26.71875 C 346.847656 -5.9375 332.003906 4.453125 319.140625 4.453125 C 308.253906 4.453125 293.160156 -2.71875 273.859375 -17.0625 L 266.4375 -22.265625 C 255.0625 -31.660156 237.5 -48.109375 213.75 -71.609375 C 190 -95.117188 171.9375 -111.820312 159.5625 -121.71875 L 159.5625 -64.5625 C 159.5625 -53.1875 159.191406 -44.648438 158.453125 -38.953125 C 157.710938 -33.265625 155.363281 -26.710938 151.40625 -19.296875 C 144.96875 -6.429688 125.914062 0 94.25 0 C 63.082031 0 44.035156 -6.675781 37.109375 -20.03125 C 33.640625 -27.457031 31.535156 -34.015625 30.796875 -39.703125 C 30.054688 -45.390625 29.6875 -53.925781 29.6875 -65.3125 L 29.6875 -509.875 C 29.6875 -521.238281 30.054688 -529.765625 30.796875 -535.453125 C 31.535156 -541.148438 33.640625 -547.707031 37.109375 -555.125 C 44.035156 -568.488281 63.332031 -575.171875 95 -575.171875 C 118.75 -575.171875 135.570312 -570.960938 145.46875 -562.546875 C 153.875 -555.617188 158.328125 -544.734375 158.828125 -529.890625 C 159.316406 -525.441406 159.5625 -518.519531 159.5625 -509.125 L 159.5625 -273.859375 C 168.46875 -281.285156 181.953125 -293.90625 200.015625 -311.71875 C 218.078125 -329.53125 231.5625 -342.144531 240.46875 -349.5625 L 249.375 -355.5 C 266.6875 -368.851562 281.523438 -375.53125 293.890625 -375.53125 C 306.265625 -375.53125 320.492188 -365.507812 336.578125 -345.46875 C 352.660156 -325.4375 360.703125 -309.726562 360.703125 -298.34375 C 360.703125 -286.96875 351.546875 -273.613281 333.234375 -258.28125 Z M 259.765625 -195.9375 "/></g></g></g><g clip-path="url(#id1)"><g clip-path="url(#id2)"><g clip-path="url(#id3)"><g clip-path="url(#id4)"><g clip-path="url(#id5)"><g clip-path="url(#id6)"><path fill="#cb7158" d="M 2285.664062 521.933594 C 2211.628906 407.078125 2100.210938 315.464844 1960.875 267.359375 C 1835.605469 224.148438 1706.328125 222.523438 1587.511719 255.066406 C 1568.160156 260.375 1548.144531 249 1542.878906 229.675781 C 1537.578125 210.339844 1548.945312 190.332031 1568.308594 185.007812 C 1700.660156 148.699219 1845.203125 150.550781 1984.65625 198.722656 C 2139.746094 252.210938 2264.390625 354.660156 2346.789062 482.589844 L 2346.800781 482.628906 C 2357.648438 499.480469 2352.785156 521.9375 2335.882812 532.832031 C 2326.128906 539.089844 2314.519531 540.148438 2304.347656 536.601562 C 2296.925781 534.058594 2290.269531 529.085938 2285.664062 521.933594 " fill-opacity="1" fill-rule="nonzero"/></g></g></g></g></g></g><g clip-path="url(#id7)"><g clip-path="url(#id8)"><g clip-path="url(#id9)"><g clip-path="url(#id10)"><path fill="#cb7158" d="M 2153.027344 618.019531 C 2098.121094 529.328125 2013.726562 458.523438 1907.433594 421.796875 C 1813.394531 389.351562 1716.363281 388.542969 1627.394531 413.617188 C 1608.070312 419.03125 1587.988281 407.808594 1582.554688 388.503906 C 1577.113281 369.207031 1588.371094 349.121094 1607.664062 343.707031 C 1710.339844 314.710938 1822.835938 315.722656 1931.226562 353.144531 C 2053.761719 395.429688 2151.582031 477.539062 2214.855469 579.777344 C 2225.417969 596.835938 2220.09375 619.195312 2203.039062 629.757812 C 2193.359375 635.761719 2182 636.671875 2172.027344 633.21875 C 2164.402344 630.574219 2157.589844 625.40625 2153.027344 618.019531 " fill-opacity="1" fill-rule="nonzero"/></g></g></g></g><g clip-path="url(#id11)"><g clip-path="url(#id12)"><g clip-path="url(#id13)"><g clip-path="url(#id14)"><g clip-path="url(#id15)"><g clip-path="url(#id16)"><path fill="#cb7158" d="M 2003.886719 735.351562 C 1971.742188 673.558594 1917.101562 623.703125 1846.074219 599.140625 C 1781.464844 576.886719 1714.699219 579.449219 1655.363281 601.644531 C 1636.574219 608.734375 1615.578125 599.21875 1608.53125 580.457031 C 1601.519531 561.691406 1611.007812 540.75 1629.78125 533.679688 C 1704.238281 505.695312 1788.785156 502.503906 1869.820312 530.492188 C 1959.007812 561.257812 2028.148438 624.316406 2068.371094 701.828125 L 2068.390625 701.894531 C 2077.617188 719.648438 2070.699219 741.589844 2052.875 750.832031 C 2043.632812 755.605469 2033.34375 756.050781 2024.25 752.914062 C 2015.773438 749.984375 2008.34375 743.933594 2003.886719 735.351562 " fill-opacity="1" fill-rule="nonzero"/></g></g></g></g></g></g><g clip-path="url(#id17)"><path fill="#cb7158" d="M 1790.429688 672.519531 C 1717.527344 672.519531 1658.429688 732.121094 1658.429688 805.644531 C 1658.429688 879.167969 1717.527344 938.769531 1790.429688 938.769531 C 1863.328125 938.769531 1922.425781 879.167969 1922.425781 805.644531 C 1922.425781 732.121094 1863.328125 672.519531 1790.429688 672.519531 " fill-opacity="1" fill-rule="nonzero"/></g></svg>